# xmcd CD database file
# Copyright (C) 1997 Ti Kan
#
# Track frame offsets:
#     225
#     11707
#     37325
#     59780
#     92147
#     118477
#     144037
#     165462
#     195080
#     252297
#     270882
#
# Disc length: 4306 seconds
#
# Revision: 2
# Processed by: cddbd v1.5.1PL2 Copyright (c) Steve Scherf et al.
# Submitted via: DiscPlay 4.0.4
#
DISCID=9610cf0b
DTITLE=Stevie Ray Vaughan - the house is rockin'
DYEAR=1900
DGENRE=
TTITLE0=the house is rockin
TTITLE1=tightrope
TTITLE2=look at little sister
TTITLE3=texas flood
TTITLE4=leave my girl alone
TTITLE5=wall of denial
TTITLE6=superstition
TTITLE7=cold shot
TTITLE8=life without you
TTITLE9=crossfire
TTITLE10=voodoo chile
EXTD=
EXTT0=
EXTT1=
EXTT2=
EXTT3=
EXTT4=
EXTT5=
EXTT6=
EXTT7=
EXTT8=
EXTT9=
EXTT10=
PLAYORDER=
